<?xml version="1.0" encoding="UTF-8"?>
<!DOCTYPE svg PUBLIC "-//W3C//DTD SVG 1.1//EN" "http://www.w3.org/Graphics/SVG/1.1/DTD/svg11.dtd">
<!-- Creator: CorelDRAW X8 -->
<svg xmlns="http://www.w3.org/2000/svg" xml:space="preserve" width="472.311mm" height="204.216mm" version="1.1" style="shape-rendering:geometricPrecision; text-rendering:geometricPrecision; image-rendering:optimizeQuality; fill-rule:evenodd; clip-rule:evenodd"
viewBox="0 0 44805 19373"
 xmlns:xlink="http://www.w3.org/1999/xlink">
 <defs>
  <style type="text/css">
   <![CDATA[
    .fil0 {fill:white}
    .fil1 {fill:white;fill-rule:nonzero}
   ]]>
  </style>
 </defs>
 <g id="Capa_x0020_1">
  <metadata id="CorelCorpID_0Corel-Layer"/>
  <g id="_681308576">
   <path class="fil0" d="M33736 11208l218 192 -3 3c-481,436 -1045,654 -1694,654 -697,0 -1292,-244 -1784,-736 -493,-492 -735,-1087 -735,-1783 0,-694 245,-1288 735,-1780 492,-494 1086,-739 1784,-739 650,0 1214,219 1694,657l3 3 -218 193 -2 -2c-422,-374 -914,-558 -1477,-558 -617,0 -1141,217 -1577,652 -436,434 -654,959 -654,1574 0,616 217,1143 654,1578 436,435 961,651 1577,651 562,0 1055,-184 1477,-557l2 -2zm1237 576l1873 0 0 285 -2159 0 0 -4920 286 0 0 4635zm4880 -4635l285 0 0 3534 -1 0c-50,371 -204,693 -469,958 -313,313 -692,469 -1135,469 -444,0 -825,-155 -1139,-469 -313,-314 -470,-692 -470,-1135l0 -3357 286 0 0 3357c0,364 130,674 387,932 258,258 571,387 936,387 364,0 675,-130 933,-387 256,-258 387,-569 387,-932l0 -3357zm2761 1833c186,81 349,199 491,343 313,315 470,694 470,1138 0,443 -157,822 -470,1135 -265,266 -586,420 -958,471l0 0 -1599 0 0 -4920 1471 0c280,0 519,98 716,296 197,197 295,437 295,715 0,279 -100,518 -297,716 -37,38 -76,75 -119,106zm-1779 -1551l0 1424 1245 0c160,-17 333,-62 450,-179 142,-143 211,-315 211,-516 0,-201 -71,-372 -212,-515 -142,-143 -313,-214 -514,-214l-1180 0zm0 1709l0 2644 1132 0c362,0 672,-130 928,-387 257,-258 384,-569 384,-934 0,-364 -127,-677 -384,-935 -256,-257 -565,-388 -928,-388l-1132 0z"/>
   <path class="fil0" d="M33739 11211l213 185c-484,442 -1046,655 -1693,655 -697,0 -1295,-242 -1786,-733 -484,-491 -733,-1081 -733,-1779 0,-697 249,-1287 733,-1778 491,-491 1089,-740 1786,-740 647,0 1209,220 1693,654l-213 193c-420,-378 -918,-562 -1480,-562 -619,0 -1146,220 -1580,654 -441,434 -654,961 -654,1579 0,619 213,1146 654,1580 434,434 961,654 1580,654 562,0 1060,-192 1480,-562z"/>
   <path class="fil0" d="M34693 12065l0 -4916 278 0 0 4639 1871 0 0 277 -2149 0zm5160 -4916l278 0 0 3536c-50,370 -206,690 -462,953 -314,313 -691,470 -1139,470 -441,0 -818,-157 -1131,-470 -313,-313 -470,-690 -470,-1131l0 -3358 278 0 0 3358c0,363 128,676 391,932 256,256 569,391 932,391 370,0 683,-135 939,-391 256,-256 384,-569 384,-932l0 -3358zm2117 4639c363,0 669,-128 925,-392 263,-256 391,-569 391,-932 0,-370 -128,-683 -391,-939 -256,-256 -562,-391 -925,-391l-1138 0 0 2654 1138 0zm-1138 -4362l0 1430 1252 0c199,-21 348,-78 448,-177 142,-143 213,-313 213,-520 0,-199 -71,-370 -213,-519 -142,-142 -313,-214 -519,-214l-1181 0zm1771 1559c185,78 349,192 498,341 313,313 470,690 470,1138 0,442 -157,819 -470,1132 -263,263 -576,419 -953,469l-1594 0 0 -4916 1466 0c277,0 519,100 711,299 199,199 292,434 292,711 0,278 -93,520 -292,712 -42,42 -85,85 -128,114z"/>
   <path class="fil0" d="M26823 11660c322,25 644,36 966,36 194,0 393,-7 585,-34 109,-15 215,-45 317,-86 64,-245 113,-497 158,-746l1 -8 224 0 -1 11c-23,208 -45,416 -62,625 -10,123 -21,250 -21,374l7 163 -10 1c-234,18 -470,28 -705,28l-488 -8c-235,-4 -469,-9 -703,-13 -163,-4 -325,-7 -488,-7 -322,0 -646,10 -968,21l-10 0 0 -237 106 0c80,0 270,-3 335,-56 61,-50 82,-193 90,-266 12,-112 15,-230 17,-343 5,-201 6,-402 6,-603l0 -1872c0,-250 -2,-504 -20,-753 -6,-77 -12,-156 -21,-233 -4,-30 -10,-84 -22,-112 -14,-33 -34,-62 -63,-83 -42,-29 -213,-48 -263,-54l-248 -27 0 -236 347 0 329 10c140,5 281,11 420,11l1196 -18 567 -3c196,-2 391,5 586,21l13 1 -4 12c-45,151 -74,309 -94,465 -24,195 -36,392 -39,588l-1 10 -223 0 0 -10c0,-205 -7,-416 -34,-619 -280,-113 -596,-147 -896,-147 -296,0 -591,15 -885,40 2,211 0,422 -7,633l-6 526 0 684c179,12 360,20 540,20 125,0 742,3 843,-55 89,-52 94,-259 94,-346l0 -235 225 0 -1 10c-12,275 -22,552 -22,827 0,255 9,512 22,767l1 11 -225 0 0 -208c0,-108 -8,-326 -113,-392 -118,-73 -685,-72 -827,-72 -179,0 -359,8 -537,21l0 830 3 482c1,131 2,262 3,392 1,87 2,175 6,262zm-2288 -127c13,-202 18,-405 18,-607 0,-110 0,-221 -3,-331 -1,-33 -2,-66 -4,-98 -1,-17 -2,-36 -5,-53 -6,-26 -16,-61 -40,-76 -36,-20 -276,-41 -322,-45l-378 -35 0 -236 11 0c207,10 414,19 622,26 145,5 291,9 437,9 170,0 345,-8 513,-35l11 -2 0 185 -221 158c-31,192 -46,386 -46,581 0,236 18,473 44,708l1 7 -7 3c-300,129 -617,220 -936,286 -328,68 -663,109 -998,109 -455,0 -896,-91 -1294,-317 -370,-211 -658,-504 -857,-881 -211,-398 -300,-832 -300,-1280 0,-464 96,-911 322,-1318 214,-384 512,-684 896,-899 438,-244 958,-320 1453,-320 221,0 444,15 662,51 116,20 233,47 348,77 147,38 293,82 439,127l273 81 -2 10c-33,142 -56,288 -75,432 -26,191 -44,384 -59,576l0 9 -217 0 0 -235c0,-70 -1,-330 -48,-385 -88,-103 -364,-218 -489,-268 -289,-117 -601,-161 -912,-161 -527,0 -1029,135 -1389,536 -387,431 -525,977 -525,1547 0,564 133,1101 474,1557 379,507 890,747 1520,747 372,0 741,-100 1083,-240zm-4950 -1160l-1785 0 -210 547c-55,145 -110,292 -156,440 -15,46 -29,92 -39,139 -6,27 -13,59 -13,86 0,37 6,80 36,105 35,31 147,47 192,53l307 38 0 237 -11 -1c-223,-16 -448,-21 -671,-21 -263,0 -526,5 -788,21l-10 1 0 -238 103 -3c68,-3 218,-10 277,-48 54,-37 105,-147 131,-205 157,-352 309,-705 453,-1062l857 -2127c97,-243 194,-486 287,-730 63,-165 125,-331 180,-498l2 -7 224 0 1579 4024c43,110 86,220 132,328 15,34 30,69 46,102 10,21 20,43 32,62 30,47 69,89 118,116 67,34 230,44 304,48l10 1 0 237 -11 -1c-257,-13 -514,-21 -771,-21 -304,0 -609,10 -912,21l-11 0 0 -236 318 -22c36,-2 162,-12 191,-35 28,-22 43,-52 43,-88 0,-30 -15,-79 -23,-108 -21,-70 -45,-140 -70,-209l-341 -946zm-1660 -300l1536 0 -767 -2008 -769 2008zm-2441 -2603c-23,355 -33,712 -33,1068l0 1945c0,280 1,562 13,841 3,79 7,159 15,238 3,30 9,86 21,113 44,100 257,105 346,105l242 0 0 237 -10 0c-311,-12 -622,-21 -933,-21 -309,0 -618,9 -927,21l-11 0 0 -237 272 0c70,0 206,-5 260,-57 54,-50 69,-158 75,-228 12,-151 19,-304 23,-456 6,-191 8,-382 8,-573l0 -1949c0,-349 -6,-698 -21,-1047l-307 0c-197,0 -396,0 -592,9 -46,3 -206,9 -246,29 -70,35 -90,233 -96,299l-44 467 -217 0 6 -416c0,-99 -4,-199 -9,-299 -8,-136 -18,-271 -29,-406l-1 -11 11 0c445,5 890,11 1334,15 214,3 428,6 641,6l1732 -21 -1 11c-39,369 -64,740 -70,1111l-1 10 -216 0 -32 -458c-4,-50 -18,-231 -51,-270 -28,-35 -103,-45 -144,-48 -258,-21 -517,-28 -775,-28l-233 0zm-6551 469l0 2335c0,228 1,457 7,685 3,146 7,294 20,440 6,64 23,241 71,290 49,50 226,68 292,74l209 18 0 237 -11 -1c-204,-13 -408,-21 -612,-21 -104,0 -209,3 -313,5 -186,5 -373,10 -559,16l-10 0 0 -237 233 0c71,0 203,-5 257,-59 53,-52 69,-165 75,-235 13,-147 20,-295 25,-442 7,-192 9,-384 9,-576l0 -1694c0,-315 -2,-630 -10,-945 -1,-73 -9,-201 -46,-266 -30,-52 -72,-93 -120,-128 -63,-44 -147,-56 -222,-56l-202 0 0 -238 10 1c200,10 403,21 603,21 164,0 328,-8 491,-21l6 -1 3 5c198,264 392,532 581,803 185,265 372,528 565,787l1064 1434c163,220 327,438 495,654 104,134 209,267 318,396l0 -2162c0,-354 0,-709 -11,-1063 -3,-99 -6,-199 -14,-297 -3,-37 -7,-105 -19,-139 -41,-116 -250,-145 -351,-156l-242 -25 0 -237 10 1c259,11 519,21 777,21 248,0 498,-10 745,-21l11 -1 0 238 -249 0c-149,0 -290,41 -323,203 -8,43 -10,100 -12,144 -4,99 -6,199 -8,298 -7,350 -7,700 -7,1050l0 1540c0,494 22,990 50,1483l1 13 -13 -2c-111,-20 -223,-40 -333,-63 -34,-7 -68,-15 -101,-24 -19,-5 -40,-11 -58,-19 -52,-26 -96,-68 -133,-112 -250,-306 -493,-617 -727,-935l-2222 -3016zm-3001 3841l205 0c118,0 289,-18 337,-147 14,-39 20,-105 24,-147 10,-97 14,-196 18,-294 13,-341 15,-684 15,-1025l0 -1155c0,-352 -1,-706 -13,-1057 -3,-100 -7,-200 -16,-299 -3,-40 -8,-107 -21,-144 -40,-115 -182,-133 -288,-133l-261 0 0 -238 10 1c340,14 681,21 1021,21 254,0 509,-6 762,-21l11 -1 0 238 -250 0c-67,0 -220,3 -271,55 -50,51 -59,219 -62,286 -7,169 -10,338 -12,507 -3,264 -4,528 -4,792l0 1176c0,342 1,686 13,1027 4,97 8,194 17,290 3,38 9,104 22,139 46,117 226,129 331,129l216 0 0 238 -11 -1c-277,-15 -556,-21 -834,-21 -316,0 -633,5 -949,21l-10 1 0 -238zm-2311 -663l813 -2229c108,-296 215,-594 309,-894 28,-90 55,-180 78,-271 11,-45 25,-106 25,-153 0,-105 -61,-146 -161,-151l-127 -10 -277 -31 0 -237 11 1c226,11 453,21 679,21 234,0 468,-10 702,-21l10 -1 0 238 -134 0c-75,0 -157,14 -209,73 -34,39 -72,124 -92,171 -54,121 -101,245 -147,368l-1050 2809c-88,236 -173,474 -253,713 -60,182 -118,367 -167,553l-2 7 -334 0 -2 -7c-88,-288 -183,-574 -286,-857l-1116 -3053c-62,-171 -124,-342 -190,-511 -18,-48 -37,-95 -57,-143 -8,-19 -20,-48 -32,-66 -36,-55 -203,-57 -259,-57l-138 0 0 -238 11 1c275,12 551,21 827,21 287,0 575,-9 862,-21l10 -1 0 238 -317 0c-48,0 -158,1 -199,30 -31,23 -42,56 -42,94 0,33 6,66 15,97l402 1178 837 2339z"/>
   <path class="fil1" d="M26801 9684l0 840 3 483c0,302 3,522 10,662 303,24 628,37 975,37 233,0 428,-11 587,-34 102,-14 210,-43 324,-88 52,-201 105,-452 159,-752l204 0c-55,500 -83,833 -83,1000l6 154c-239,19 -473,28 -704,28l-488 -8c-541,-13 -937,-20 -1191,-20 -243,0 -566,7 -968,21l0 -217 96 0c181,0 295,-20 341,-58 47,-39 78,-130 94,-273 16,-142 23,-458 23,-947l0 -1872c0,-307 -6,-558 -20,-754 -14,-194 -28,-311 -44,-348 -16,-38 -38,-67 -67,-88 -28,-20 -117,-38 -267,-55l-239 -26 0 -217 337 0 329 10c185,7 325,11 420,11l1196 -18 567 -3c193,-3 388,4 585,21 -80,270 -125,622 -133,1056l-204 0c0,-251 -12,-459 -34,-626 -247,-100 -548,-150 -906,-150 -285,0 -583,14 -895,40 2,215 0,428 -7,643l-6 526 0 694c208,14 391,20 550,20 499,0 782,-18 848,-57 66,-38 99,-156 99,-354l0 -225 204 0c-15,345 -22,620 -22,827 0,216 7,473 22,768l-204 0 0 -198c0,-218 -39,-351 -118,-400 -78,-49 -355,-74 -832,-74 -175,0 -358,7 -547,21z"/>
   <path class="fil1" d="M25164 10387c-30,193 -46,388 -46,587 0,210 14,446 44,709 -276,119 -587,214 -934,285 -348,73 -679,109 -996,109 -490,0 -919,-105 -1289,-316 -370,-210 -655,-503 -853,-877 -199,-375 -299,-800 -299,-1275 0,-493 107,-930 321,-1313 213,-384 511,-683 892,-895 381,-213 864,-319 1448,-319 238,0 458,17 660,51 201,34 463,103 786,204l264 78c-56,242 -101,579 -134,1010l-197 0 0 -225c0,-223 -17,-353 -50,-392 -62,-72 -226,-163 -493,-270 -267,-109 -572,-162 -916,-162 -609,0 -1074,179 -1397,539 -351,391 -528,909 -528,1554 0,619 160,1140 477,1563 373,500 883,751 1528,751 336,0 700,-82 1092,-244 13,-191 19,-396 19,-613 0,-281 -4,-442 -12,-484 -9,-43 -24,-70 -45,-83 -22,-12 -131,-28 -326,-46l-369 -34 0 -217c476,23 830,35 1060,35 200,0 371,-12 514,-35l0 168 -221 157z"/>
   <path class="fil1" d="M17910 10083l1565 0 -781 -2046 -784 2046zm1682 280l-1799 0 -212 554c-139,364 -209,586 -209,668 0,52 12,90 39,113 25,22 91,41 197,55l299 37 0 217c-199,-14 -423,-21 -672,-21 -299,0 -562,7 -788,21l0 -217 93 -3c146,-5 239,-21 283,-49 42,-29 87,-99 134,-210 148,-329 299,-682 453,-1062l857 -2127c228,-565 384,-974 467,-1229l210 0 1576 4018c107,273 177,437 212,493 36,56 76,96 122,120 45,23 147,40 308,49l0 217c-270,-14 -527,-21 -772,-21 -229,0 -532,7 -912,21l0 -217 307 -21c111,-8 177,-21 197,-37 31,-25 47,-57 47,-96 0,-41 -31,-148 -94,-320l-343 -953z"/>
   <path class="fil1" d="M15475 7460c-22,341 -34,700 -34,1078l0 1945c0,724 17,1122 50,1196 33,74 151,111 355,111l232 0 0 217c-367,-14 -678,-21 -933,-21 -257,0 -566,7 -927,21l0 -217 261 0c137,0 226,-20 267,-59 42,-40 67,-118 78,-235 20,-266 31,-610 31,-1030l0 -1949c0,-383 -8,-737 -21,-1057l-317 0c-510,0 -790,12 -842,39 -52,26 -86,129 -102,307l-44 458 -197 0 6 -406c0,-164 -12,-400 -38,-706 1120,14 1779,21 1975,21l1721 -21c-41,385 -64,755 -70,1112l-198 0 -31 -449c-12,-155 -29,-247 -53,-275 -22,-28 -73,-47 -152,-52 -227,-19 -485,-28 -775,-28l-242 0z"/>
   <path class="fil1" d="M8923 7909l0 2365c0,538 9,913 27,1126 15,162 40,261 74,296 35,36 133,61 298,77l200 17 0 217c-227,-14 -431,-21 -613,-21 -128,0 -418,7 -872,21l0 -217 223 0c135,0 223,-21 264,-62 42,-41 67,-121 78,-241 22,-251 34,-590 34,-1019l0 -1694c0,-319 -3,-633 -10,-945 -4,-132 -20,-222 -47,-271 -29,-49 -69,-93 -124,-131 -54,-39 -129,-58 -227,-58l-192 0 0 -217c263,14 464,21 603,21 150,0 313,-7 492,-21 206,275 399,543 581,803 181,261 369,524 565,787l1064 1434c384,515 661,871 831,1072l0 -2190c0,-917 -15,-1418 -44,-1503 -31,-86 -150,-140 -360,-162l-233 -24 0 -217c334,14 593,21 777,21 193,0 441,-7 746,-21l0 217 -239 0c-192,0 -303,70 -332,211 -18,93 -28,592 -28,1494l0 1540c0,414 17,908 50,1484 -280,-49 -444,-84 -490,-105 -44,-22 -88,-58 -129,-110 -231,-281 -473,-592 -727,-934l-2240 -3040z"/>
   <path class="fil1" d="M5942 11790l195 0c192,0 308,-51 346,-154 39,-101 58,-591 58,-1469l0 -1155c0,-909 -17,-1410 -50,-1503 -33,-94 -132,-140 -298,-140l-251 0 0 -217c344,14 685,21 1021,21 281,0 534,-7 763,-21l0 217 -240 0c-148,0 -240,19 -278,58 -38,38 -59,136 -65,293 -11,243 -16,676 -16,1299l0 1176c0,884 18,1370 53,1460 35,90 149,135 340,135l206 0 0 217c-255,-14 -533,-21 -835,-21 -350,0 -667,7 -949,21l0 -217z"/>
   <path class="fil1" d="M3303 12063c-94,-306 -189,-590 -287,-857l-1115 -3054c-159,-441 -253,-681 -280,-722 -27,-40 -116,-61 -268,-61l-127 0 0 -217c324,14 600,21 827,21 240,0 528,-7 862,-21l0 217 -307 0c-105,0 -174,10 -205,32 -31,22 -46,56 -46,102 0,30 5,63 15,100l403 1179 846 2364 822 -2255c276,-752 413,-1192 413,-1321 0,-102 -56,-156 -171,-161l-126 -10 -268 -30 0 -217c275,14 503,21 680,21 187,0 421,-7 702,-21l0 217 -124 0c-100,0 -172,25 -217,77 -44,50 -125,232 -241,542l-1049 2809c-198,528 -338,950 -421,1266l-318 0z"/>
   <polygon class="fil0" points="2891,6372 22407,6276 41954,6372 22407,6468 "/>
   <path class="fil1" d="M22365 5088c-123,-242 -62,-789 11,-892l-11 892zm3809 705c826,229 2090,232 2714,232 7451,0 -652,0 0,0l15337 0c61,83 144,137 306,137 162,0 274,-132 274,-286 0,-155 -112,-278 -274,-278 -162,0 -237,54 -303,137 -3712,0 -5604,0 -15924,0 -464,0 -924,-17 -1386,-54 -216,-18 -444,-42 -658,-96 18,-164 -56,-298 228,-366 -109,-268 -331,-423 -782,-369 301,-432 -232,-796 -257,-720 -190,1798 -1943,1373 -2619,367l-219 -503 98 -328c206,-307 519,-480 1154,-230 485,329 -396,543 264,1176 -135,-445 1388,-905 -228,-1631 79,-63 1413,390 981,-1096 -278,1274 -1230,-271 -2129,1160l-9 0 0 -123c-50,-955 1182,-405 935,-1853 -262,-7 -757,168 -929,352 129,-252 427,-897 -192,-1421 -643,502 -387,1091 -307,1415 -600,-489 -946,-358 -959,-367 -201,1088 949,1030 799,1987 -828,-1615 -1897,-47 -2105,-1363 -524,1458 835,1085 914,1155 -1656,629 -163,1179 -327,1612 696,-601 -167,-859 336,-1167 649,-203 951,-12 1139,301l124 377 -21 98c-453,1254 -2708,1916 -2806,-142 -21,-68 -568,257 -296,703 -449,-78 -678,72 -802,333 360,102 112,285 244,538 18,39 42,73 72,103 -218,56 -452,82 -674,100 -462,37 -922,54 -1386,54 -10319,0 -12212,0 -15924,0 -65,-83 -141,-137 -303,-137 -162,0 -274,123 -274,278 0,154 112,286 274,286 162,0 245,-55 306,-138l15337 0c652,0 -7450,0 0,0 682,0 2127,-3 2931,-300 260,49 574,-34 696,-214l82 348c906,69 1695,-478 2232,-1075 321,-76 23,340 519,521 441,-119 332,-372 411,-462l101 12c498,619 1260,1222 2166,1208l100 -355c173,289 795,381 1019,84zm-3718 -4014c120,457 165,742 -44,1191 -152,-337 -126,-743 44,-1191z"/>
   <polygon class="fil0" points="2891,13001 22407,13097 41954,13001 22407,12905 "/>
   <path class="fil1" d="M22365 14285c-123,242 -62,788 11,892l-11 -892zm-3517 -638c-804,-298 -2249,-301 -2931,-301 -7450,0 652,0 0,0l-15337 0c-61,-83 -144,-137 -306,-137 -162,0 -274,132 -274,286 0,155 112,278 274,278 162,0 238,-54 303,-137 3712,0 5605,0 15924,0 464,0 924,17 1386,54 222,18 456,43 674,99 -30,30 -54,65 -72,104 -132,253 116,436 -244,537 124,262 353,412 802,334 -272,445 275,771 296,703 98,-2059 2353,-1396 2806,-142l21 98 -124 377c-188,313 -490,504 -1139,301 -503,-308 360,-566 -336,-1167 164,433 -1329,983 327,1612 -79,70 -1438,-303 -914,1155 208,-1316 1277,252 2105,-1363 150,957 -1000,899 -799,1987 13,-9 359,122 959,-368 -80,324 -336,913 307,1416 619,-524 321,-1169 192,-1422 172,184 667,360 929,352 247,-1447 -985,-898 -935,-1852l0 -123 9 -1c899,1431 1851,-113 2129,1161 432,-1486 -902,-1033 -981,-1096 1616,-726 93,-1187 228,-1631 -660,632 221,847 -264,1176 -635,250 -948,77 -1154,-231l-98 -327 219 -503c676,-1006 2429,-1432 2619,367 25,76 558,-289 257,-720 451,54 673,-101 782,-369 -284,-68 -210,-202 -228,-367 214,-53 442,-77 658,-95 462,-38 922,-54 1386,-54 10320,0 12212,0 15924,0 66,83 141,137 303,137 162,0 274,-123 274,-278 0,-155 -112,-286 -274,-286 -162,0 -245,54 -306,137l-15337 0c-652,0 7451,0 0,0 -624,0 -1888,3 -2714,232 -224,-297 -846,-205 -1019,83l-100 -354c-906,-14 -1668,588 -2166,1208l-101 11c-79,-89 30,-342 -411,-461 -496,181 -198,597 -519,521 -537,-597 -1326,-1145 -2232,-1075l-82 348c-122,-181 -436,-264 -696,-214zm3608 3947c120,-457 165,-742 -44,-1192 -152,337 -126,744 44,1192z"/>
  </g>
 </g>
</svg>
